<?xml version="1.0" encoding="utf-8"?>
<svg viewBox="0 0 500 500" xmlns="http://www.w3.org/2000/svg">
  <title>Bulb</title>
  <path d="M 283.158 378.582 L 283.158 354.582 C 283.158 325.582 314.698 298.152 335.158 278.582 C 363.998 251.012 379.158 213.972 379.158 170.582 C 379.158 90.582 315.428 26.582 235.158 26.582 C 155.537 26.36 90.936 90.961 91.158 170.582 C 91.158 212.422 106.968 251.972 135.158 278.582 C 155.508 297.792 187.158 325.282 187.158 354.582 L 187.158 378.582 M 203.158 474.582 L 267.158 474.582 M 187.158 426.582 L 283.158 426.582 M 235.158 378.582 L 235.158 250.582" fill="none" stroke-linecap="round" stroke-linejoin="round" stroke-width="32" style="stroke: rgb(0, 128, 75);"/>
  <path d="M 273.158 211.882 C 273.158 211.882 251.648 227.882 235.158 227.882 C 218.668 227.882 197.158 211.882 197.158 211.882" fill="none" stroke-linecap="round" stroke-linejoin="round" stroke-width="32" style="stroke: rgb(0, 128, 75);"/>
</svg>